<svg version="1.1" xmlns="http://www.w3.org/2000/svg" xmlns:xlink="http://www.w3.org/1999/xlink" x="0px" y="0px"
	 viewBox="0 0 173.8 173.8" style="enable-background:new 0 0 173.8 173.8;" xml:space="preserve">
<rect x="27.5" y="27.6" transform="matrix(0.7071 0.7071 -0.7071 0.7071 86.9367 -35.9757)" style="opacity:0.5" width="118.8" height="118.8"/>
<g style="opacity:0.7">
	<path style="fill:#737373" d="M86.9,3l84,84l-84,84l-84-84L86.9,3 M86.9,0.2l-1.4,1.4l-84,84L0.1,87l1.4,1.4l84,84l1.4,1.4l1.4-1.4l84-84
		l1.4-1.4l-1.4-1.4l-84-84L86.9,0.2L86.9,0.2z"/>
</g>
<g>
	<path style="fill:#C2C2C2" d="M107.5,96c-0.6,0-1.1,0.3-1.4,0.8c-0.3,0.7-0.5,1.6-0.4,2.8l0,0.3c0,0.2,0,0.4,0,0.6h3.5v-0.9
		c0-1.2-0.1-2-0.2-2.5C108.8,96.4,108.3,96,107.5,96z"/>
	<path style="fill:#C2C2C2" d="M94.5,96.4c-1,0-1.6,1-1.8,3.1c0,0.4-0.1,1.9-0.1,4.5c0,2,0,3.2,0.1,3.7c0.2,1.5,0.8,2.3,1.8,2.3
		c0.9,0,1.4-0.9,1.6-2.8c0-0.4,0.1-1.7,0.1-4c0-2.3,0-3.7-0.1-4C95.9,97.3,95.4,96.4,94.5,96.4z"/>
	<path style="fill:#C2C2C2" d="M119.2,111V90.2c0-6-4.8-10.8-10.8-10.8H65.7c-6,0-10.8,4.8-10.8,10.8V111c0,6,4.8,10.8,10.8,10.8h42.7
		C114.3,121.8,119.2,117,119.2,111L119.2,111z M73.9,90.7h-4.5v22.5h-3.9V90.7h-4.5v-4.5h12.8V90.7z M86,113.2h-3.5v-2
		c-0.7,1.7-1.8,2.6-3.3,2.6c-2.3,0-3.5-1.6-3.5-4.9V93h3.5v13.2c0,1.1,0.1,1.9,0.2,2.3c0.2,0.8,0.7,1.2,1.3,1.2
		c0.7,0,1.2-0.4,1.4-1.3c0.1-0.5,0.2-1.3,0.2-2.5V93H86V113.2z M99.3,109.9c-0.6,2.5-1.8,3.8-3.6,3.8c-1.5,0-2.6-0.9-3.2-2.7v2.1
		l-3.4,0l0,0h0h0v-27h3.6v8.4c0.6-1.5,1.6-2.3,3.1-2.3c1.8,0,3,1.3,3.6,3.9c0.3,1.3,0.4,3.6,0.4,6.8
		C99.8,106.3,99.7,108.6,99.3,109.9z M112.9,103.7h-7.1c0,0.2,0,0.7,0,1.3c0,1.5,0.1,2.6,0.2,3.2c0.3,1.3,0.8,2,1.6,2
		c1.2,0,1.8-1.3,1.8-4h0h3.4c0,0.1,0,0.2,0,0.4c0,0.2,0,0.3,0,0.4c0,2.3-0.4,4-1.3,5.1c-0.9,1.1-2.2,1.6-4,1.6
		c-1.9,0-3.2-0.6-4.1-1.9c-0.7-1-1.1-2.5-1.3-4.5c-0.1-0.9-0.1-2.5-0.1-4.9c0-1.9,0-3.3,0.1-4.1c0.2-1.7,0.5-2.9,1.1-3.8
		c0.9-1.4,2.3-2.1,4.3-2.1c1.9,0,3.3,0.8,4.2,2.3c0.7,1.2,1.1,3.7,1.1,7.5V103.7z"/>
</g>
<g>
	<path style="fill:#C2C2C2" d="M71.5,74.3V62.8L66,47.1h4.3l3.2,10.2l3.1-10.2h4.2l-5.4,15.6v11.5H71.5L71.5,74.3z M82.2,64.1
		c0-3.5,0.3-6,0.8-7.5c0.8-2.2,2.4-3.3,4.7-3.3c2.3,0,3.9,1.1,4.7,3.3c0.5,1.5,0.8,3.9,0.8,7.5c0,3.5-0.3,6-0.8,7.5
		c-0.8,2.2-2.4,3.3-4.7,3.3c-2.3,0-3.9-1.1-4.7-3.3C82.4,70.1,82.2,67.6,82.2,64.1L82.2,64.1z M85.9,64.4c0,2.5,0,3.9,0,4.1
		c0.2,1.8,0.8,2.7,1.7,2.7c1,0,1.5-0.8,1.8-2.3c0-0.3,0.1-1.6,0.1-3.8v-2c0-2.1,0-3.3-0.1-3.7c-0.2-1.5-0.8-2.3-1.7-2.3
		c-0.9,0-1.5,0.7-1.7,2c-0.1,0.4-0.1,1.6-0.1,3.4L85.9,64.4L85.9,64.4z M106.2,53.9v20.4h-3.6v-2c-0.8,1.7-1.8,2.6-3.3,2.6
		c-2.3,0-3.5-1.6-3.5-4.9v-16h3.5v13.3c0,1.1,0.1,1.9,0.2,2.3c0.2,0.8,0.7,1.2,1.3,1.2c0.7,0,1.2-0.4,1.5-1.3
		c0.1-0.5,0.2-1.4,0.2-2.5v-13H106.2L106.2,53.9z"/>
</g>
</svg>
